<?xml version="1.0" standalone="no"?>
<!DOCTYPE svg PUBLIC "-//W3C//DTD SVG 20010904//EN"
 "http://www.w3.org/TR/2001/REC-SVG-20010904/DTD/svg10.dtd">
<svg version="1.0" xmlns="http://www.w3.org/2000/svg"
 width="240.000000pt" height="240.000000pt" viewBox="0 0 240.000000 240.000000"
 preserveAspectRatio="xMidYMid meet">
<metadata>
Created by potrace 1.11, written by Peter Selinger 2001-2013
</metadata>
<g transform="translate(0.000000,240.000000) scale(0.100000,-0.100000)"
fill="#000000" stroke="none">
<path d="M797 2369 c-90 -21 -143 -65 -171 -140 -25 -66 -56 -95 -110 -103
-25 -4 -52 -14 -60 -22 -8 -8 -19 -14 -24 -14 -14 0 -72 -68 -83 -99 -21 -54
-8 -113 38 -171 10 -13 8 -22 -7 -48 -11 -18 -24 -32 -30 -32 -15 0 -70 -52
-85 -80 -11 -21 -11 -32 1 -65 8 -22 16 -63 18 -91 1 -28 6 -55 9 -61 4 -6 -4
-32 -18 -58 l-24 -48 19 -47 c10 -26 16 -51 13 -54 -10 -9 -11 -137 -2 -171 8
-29 17 -84 24 -135 6 -39 26 -112 38 -140 15 -32 27 -44 52 -54 18 -7 18 -9 4
-19 -25 -19 -28 -52 -8 -78 10 -13 19 -31 19 -40 0 -11 14 -19 41 -25 37 -8
45 -15 74 -68 113 -205 288 -356 488 -420 82 -26 275 -27 362 -2 194 56 367
197 484 394 45 76 56 88 89 97 21 6 37 17 37 25 1 8 9 27 18 41 19 29 15 79
-7 79 -6 1 1 7 15 15 29 16 58 56 65 88 2 12 6 33 9 47 3 14 7 36 10 50 3 14
10 50 16 80 6 30 13 83 16 116 5 56 3 63 -18 77 -12 9 -27 14 -32 10 -5 -3 -6
4 -2 18 4 13 9 35 10 49 1 14 8 44 15 67 12 40 11 44 -19 91 -38 59 -39 82 -6
130 40 59 32 107 -29 176 -38 43 -37 60 8 99 16 14 21 30 20 63 -1 55 -22 73
-86 74 -79 0 -139 68 -144 164 -4 83 -45 109 -174 111 -94 2 -91 1 -155 55
-33 28 -67 50 -76 50 -10 0 -20 4 -24 9 -7 13 -152 6 -190 -9 -44 -17 -152
-15 -215 4 -66 21 -161 27 -213 15z"/>
</g>
</svg>
