<?xml version="1.0" standalone="no"?>
<!DOCTYPE svg PUBLIC "-//W3C//DTD SVG 20010904//EN"
 "http://www.w3.org/TR/2001/REC-SVG-20010904/DTD/svg10.dtd">
<svg version="1.0" xmlns="http://www.w3.org/2000/svg"
 width="1024.000000pt" height="1024.000000pt" viewBox="0 0 1024.000000 1024.000000"
 preserveAspectRatio="xMidYMid meet">
<metadata>
Created by potrace 1.11, written by Peter Selinger 2001-2013
</metadata>
<g transform="translate(0.000000,1024.000000) scale(0.100000,-0.100000)"
fill="#000000" stroke="none">
<path d="M2980 9665 c-8 -2 -49 -9 -90 -15 -215 -34 -422 -122 -597 -254 -489
-368 -687 -937 -534 -1531 112 -433 438 -787 864 -940 l77 -28 -2 -1779 -3
-1780 -85 -32 c-551 -209 -900 -716 -900 -1306 0 -435 164 -797 490 -1080 263
-229 531 -334 880 -347 413 -16 755 122 1061 427 257 256 385 550 405 928 19
370 -107 725 -359 1013 -125 143 -244 235 -421 324 l-125 63 65 70 c114 124
238 189 467 247 248 62 622 117 1067 155 575 50 796 96 1179 246 299 117 470
219 648 388 291 275 469 706 499 1213 l7 112 56 22 c181 72 318 160 459 294
206 195 353 460 417 746 26 116 31 370 10 504 -38 249 -117 437 -266 634 -150
200 -368 373 -582 463 -341 142 -760 144 -1097 5 -286 -118 -564 -370 -713
-647 -117 -218 -161 -401 -161 -670 1 -191 15 -285 69 -444 106 -317 292 -561
566 -741 101 -67 159 -96 299 -151 l85 -32 -3 -74 c-5 -160 -59 -352 -135
-483 -24 -42 -74 -104 -126 -155 -75 -75 -101 -93 -201 -142 -168 -82 -398
-153 -585 -182 -55 -8 -228 -27 -385 -41 -357 -32 -492 -48 -750 -86 -378 -56
-745 -143 -905 -214 -32 -14 -61 -25 -66 -25 -5 0 -9 554 -9 1279 l0 1279 67
23 c137 45 289 124 383 198 322 254 502 584 541 996 40 433 -95 814 -399 1124
-234 237 -480 365 -798 415 -87 14 -315 20 -364 11z m259 -1152 c54 -19 115
-73 144 -127 30 -56 32 -213 3 -266 -60 -114 -178 -169 -312 -148 -67 10 -98
25 -143 70 -83 81 -108 223 -58 330 42 91 106 142 199 156 63 10 108 6 167
-15z m3972 -1134 c39 -10 91 -47 128 -92 80 -97 69 -280 -22 -375 -59 -62
-100 -77 -207 -77 -109 0 -154 17 -208 80 -58 66 -67 91 -67 195 0 105 11 137
69 198 73 78 179 103 307 71z m-3972 -5126 c54 -19 115 -73 144 -127 30 -56
32 -213 3 -266 -60 -114 -178 -169 -312 -148 -67 10 -98 25 -143 70 -83 81
-108 223 -58 330 42 91 106 142 199 156 63 10 108 6 167 -15z"/>
</g>
</svg>
