<?xml version="1.0" standalone="no"?>
<!DOCTYPE svg PUBLIC "-//W3C//DTD SVG 20010904//EN"
 "http://www.w3.org/TR/2001/REC-SVG-20010904/DTD/svg10.dtd">
<svg version="1.0" xmlns="http://www.w3.org/2000/svg"
 width="1024.000000pt" height="1024.000000pt" viewBox="0 0 1024.000000 1024.000000"
 preserveAspectRatio="xMidYMid meet">
<metadata>
Created by potrace 1.11, written by Peter Selinger 2001-2013
</metadata>
<g transform="translate(0.000000,1024.000000) scale(0.100000,-0.100000)"
fill="#000000" stroke="none">
<path d="M5514 8241 c-28 -17 -60 -67 -69 -109 -2 -9 -16 -57 -30 -107 -14
-49 -40 -137 -56 -195 -17 -58 -37 -127 -45 -155 -8 -27 -17 -57 -19 -65 -2
-8 -17 -60 -33 -115 -38 -130 -86 -297 -89 -310 -1 -5 -18 -64 -38 -130 -20
-66 -38 -128 -40 -138 -2 -10 -16 -57 -30 -105 -15 -47 -29 -93 -31 -102 -4
-20 -37 -135 -119 -415 -37 -126 -68 -234 -69 -240 -2 -5 -5 -17 -9 -25 -7
-19 -99 -342 -101 -355 -1 -5 -5 -16 -9 -22 -5 -7 -6 -13 -3 -13 3 0 -2 -19
-10 -42 -9 -24 -17 -50 -19 -58 -2 -8 -31 -111 -65 -229 -34 -118 -64 -222
-66 -230 -2 -9 -12 -45 -23 -81 -28 -96 -140 -482 -216 -745 -36 -126 -75
-259 -85 -295 -25 -82 -116 -398 -123 -425 -2 -11 -21 -76 -42 -145 -21 -69
-41 -138 -45 -155 -4 -16 -29 -102 -55 -190 -65 -221 -86 -297 -91 -320 -2
-11 -8 -31 -13 -45 -6 -14 -31 -99 -56 -189 -50 -178 -51 -203 -7 -243 33 -30
59 -39 327 -118 116 -34 255 -75 310 -91 240 -73 265 -75 313 -28 40 39 74
118 98 224 1 6 12 42 24 82 12 39 23 78 24 85 2 7 5 20 8 28 3 8 14 42 23 75
9 33 20 74 25 90 5 17 18 62 29 100 48 170 84 294 141 490 34 116 63 217 65
225 2 8 31 110 65 225 78 264 139 476 144 495 2 8 12 42 22 75 10 33 19 65 20
70 1 6 50 174 108 375 59 201 108 372 110 381 3 9 14 49 26 89 12 40 23 80 26
89 3 14 51 180 100 346 8 28 17 59 19 70 3 11 19 65 35 120 17 55 32 107 34
115 2 9 39 135 81 280 115 396 185 637 205 710 21 75 142 493 196 675 8 28 16
57 18 65 2 8 23 78 45 156 45 155 49 192 25 230 -25 37 -52 48 -326 128 -139
41 -316 93 -392 115 -155 46 -197 50 -242 22z"/>
<path d="M3066 6909 c-21 -11 -48 -30 -60 -42 -21 -20 -197 -185 -316 -297
-25 -23 -103 -97 -175 -165 -71 -67 -146 -137 -165 -155 -19 -18 -91 -85 -159
-149 -68 -64 -140 -131 -160 -150 -41 -39 -281 -263 -321 -301 -15 -14 -87
-81 -160 -150 -331 -310 -340 -320 -346 -375 -4 -39 24 -81 107 -160 140 -133
369 -348 389 -365 16 -14 242 -226 341 -320 92 -87 304 -287 320 -301 10 -8
77 -71 149 -140 231 -218 246 -232 355 -334 60 -55 120 -112 135 -127 33 -33
98 -68 126 -68 41 0 83 32 180 137 55 58 113 121 129 138 17 17 82 87 145 155
63 67 134 143 158 169 104 110 99 166 -22 270 -28 24 -69 60 -91 80 -22 20
-130 115 -240 211 -110 96 -202 177 -205 180 -3 3 -41 37 -85 75 -44 39 -82
72 -85 75 -3 3 -39 34 -80 70 -41 36 -80 70 -86 75 -11 10 -96 84 -164 144
-35 30 -35 30 -15 48 25 23 181 160 214 188 13 11 29 25 35 30 6 6 49 44 96
85 47 41 87 77 90 80 3 3 39 34 80 70 41 36 77 67 80 70 3 3 39 34 80 70 41
36 93 81 115 101 81 72 231 205 270 238 62 54 85 90 85 135 0 46 -19 74 -131
191 -37 39 -86 90 -109 115 -23 25 -92 99 -153 165 -62 66 -134 144 -162 174
-49 52 -95 81 -132 81 -10 0 -36 -9 -57 -21z"/>
<path d="M7080 6912 c-29 -19 -65 -56 -210 -211 -58 -63 -123 -132 -145 -156
-143 -151 -233 -252 -252 -284 -46 -74 -29 -108 119 -237 62 -55 129 -113 148
-130 19 -17 78 -69 130 -115 52 -46 100 -88 106 -94 6 -5 42 -37 80 -70 68
-60 108 -95 242 -214 39 -35 82 -72 94 -83 54 -46 155 -135 188 -165 l35 -33
-41 -37 c-49 -44 -167 -150 -198 -176 -52 -45 -130 -113 -145 -127 -14 -14
-140 -125 -216 -191 -366 -320 -544 -483 -555 -509 -16 -39 -7 -84 26 -123 22
-27 151 -168 244 -267 14 -14 75 -80 135 -145 213 -230 228 -242 294 -230 19
4 46 16 60 27 28 21 185 164 261 238 26 25 100 95 165 155 65 61 134 125 154
144 103 96 298 280 326 306 34 33 97 92 314 295 80 74 188 176 240 226 53 50
132 124 175 165 169 157 197 189 203 224 12 72 10 75 -271 340 -82 77 -160
151 -175 164 -14 13 -91 85 -171 160 -215 203 -271 255 -310 291 -29 27 -159
149 -340 320 -20 19 -90 85 -155 145 -65 61 -135 126 -155 145 -97 91 -190
178 -222 207 -71 63 -129 78 -178 45z"/>
</g>
</svg>
